<svg width="25" height="25" viewBox="0 0 25 25" fill="none" xmlns="http://www.w3.org/2000/svg">
<path d="M12.5 24C15.0506 24 17.0322 23.8623 18.5791 23.5186C20.1145 23.1773 21.16 22.6466 21.9033 21.9033C22.6466 21.16 23.1773 20.1145 23.5186 18.5791C23.8623 17.0322 24 15.0506 24 12.5C24 9.94939 23.8623 7.96776 23.5186 6.4209C23.1773 4.88549 22.6466 3.84 21.9033 3.09668C21.16 2.35336 20.1145 1.8227 18.5791 1.48145C17.0322 1.13767 15.0506 1 12.5 1C9.94939 1 7.96776 1.13767 6.4209 1.48145C4.88549 1.8227 3.84 2.35336 3.09668 3.09668C2.35336 3.84 1.8227 4.88549 1.48145 6.4209C1.13767 7.96776 1 9.94939 1 12.5C1 15.0506 1.13767 17.0322 1.48145 18.5791C1.8227 20.1145 2.35336 21.16 3.09668 21.9033C3.84 22.6466 4.88549 23.1773 6.4209 23.5186C7.96776 23.8623 9.94939 24 12.5 24Z" stroke="#212135" stroke-width="2" stroke-linecap="round" stroke-linejoin="round"/>
<path d="M12.5 8.33334V12.5M12.5 16.6667V12.5M12.5 12.5H16.6666H8.33331" stroke="#212135" stroke-width="2" stroke-linecap="round" stroke-linejoin="round"/>
</svg>
