<svg width="25" height="28" viewBox="0 0 25 28" fill="none" xmlns="http://www.w3.org/2000/svg">
<path d="M15.625 1.04167C15.625 0.46637 16.0914 0 16.6667 0C17.242 0 17.7083 0.46637 17.7083 1.04167V5.20833C17.7083 5.78363 17.242 6.25 16.6667 6.25C16.0914 6.25 15.625 5.78363 15.625 5.20833V1.04167Z" fill="#18DAA3"/>
<path d="M14.5833 2.11922C13.9287 2.09458 13.235 2.08333 12.5 2.08333C11.765 2.08333 11.0713 2.09458 10.4167 2.11922V5.20833C10.4167 6.35893 9.48393 7.29167 8.33333 7.29167C7.18274 7.29167 6.25 6.35893 6.25 5.20833V2.5788C2.59615 3.37783 0.945253 5.28336 0.320897 9.2718C0.225477 9.88135 0.710856 10.4167 1.32783 10.4167H23.6722C24.2891 10.4167 24.7745 9.88135 24.6791 9.2718C24.0547 5.28336 22.4039 3.37783 18.75 2.5788V5.20833C18.75 6.35893 17.8173 7.29167 16.6667 7.29167C15.5161 7.29167 14.5833 6.35893 14.5833 5.20833V2.11922Z" fill="#18DAA3"/>
<path fill-rule="evenodd" clip-rule="evenodd" d="M12.5 27.0833C2.20625 27.0833 0 24.8771 0 14.5833C0 14.2128 0.00285913 13.8527 0.00885175 13.5028C0.0184429 12.9428 0.479032 12.5 1.03909 12.5H23.9609C24.521 12.5 24.9816 12.9428 24.9911 13.5028C24.9971 13.8527 25 14.2128 25 14.5833C25 24.8771 22.7937 27.0833 12.5 27.0833ZM5.20833 16.6667C5.20833 16.0914 5.6747 15.625 6.25 15.625H9.375C9.9503 15.625 10.4167 16.0914 10.4167 16.6667C10.4167 17.242 9.9503 17.7083 9.375 17.7083H6.25C5.6747 17.7083 5.20833 17.242 5.20833 16.6667ZM6.25 19.7917C5.6747 19.7917 5.20833 20.258 5.20833 20.8333C5.20833 21.4086 5.6747 21.875 6.25 21.875H9.375C9.9503 21.875 10.4167 21.4086 10.4167 20.8333C10.4167 20.258 9.9503 19.7917 9.375 19.7917H6.25ZM14.5833 16.6667C14.5833 16.0914 15.0497 15.625 15.625 15.625H18.75C19.3253 15.625 19.7917 16.0914 19.7917 16.6667C19.7917 17.242 19.3253 17.7083 18.75 17.7083H15.625C15.0497 17.7083 14.5833 17.242 14.5833 16.6667ZM15.625 19.7917C15.0497 19.7917 14.5833 20.258 14.5833 20.8333C14.5833 21.4086 15.0497 21.875 15.625 21.875H18.75C19.3253 21.875 19.7917 21.4086 19.7917 20.8333C19.7917 20.258 19.3253 19.7917 18.75 19.7917H15.625Z" fill="#18DAA3"/>
<path d="M7.29167 1.04167C7.29167 0.46637 7.75804 0 8.33333 0C8.90863 0 9.375 0.46637 9.375 1.04167V5.20833C9.375 5.78363 8.90863 6.25 8.33333 6.25C7.75804 6.25 7.29167 5.78363 7.29167 5.20833V1.04167Z" fill="#18DAA3"/>
</svg>
