<svg width="25" height="25" viewBox="0 0 25 25" fill="none" xmlns="http://www.w3.org/2000/svg">
<path fill-rule="evenodd" clip-rule="evenodd" d="M12.5 25C2.20625 25 0 22.7937 0 12.5C0 2.20625 2.20625 0 12.5 0C22.7937 0 25 2.20625 25 12.5C25 22.7937 22.7937 25 12.5 25ZM11.4583 6.25C11.4583 5.67468 11.9247 5.20833 12.5 5.20833C13.0753 5.20833 13.5417 5.67468 13.5417 6.25V11.4583H18.75C19.3253 11.4583 19.7917 11.9247 19.7917 12.5C19.7917 13.0753 19.3253 13.5417 18.75 13.5417H12.5C11.9247 13.5417 11.4583 13.0753 11.4583 12.5V6.25Z" fill="#18DAA3"/>
</svg>
