<svg width="25" height="25" viewBox="0 0 25 25" fill="none" xmlns="http://www.w3.org/2000/svg">
<path fill-rule="evenodd" clip-rule="evenodd" d="M6.50286 0.488245C8.13141 0.126314 10.1172 0 12.5 0C14.8828 0 16.8686 0.126314 18.4971 0.488245C20.1375 0.852805 21.4785 1.47012 22.5042 2.49579C23.5299 3.52145 24.1472 4.86249 24.5118 6.50286C24.8737 8.13141 25 10.1172 25 12.5C25 14.8828 24.8737 16.8686 24.5118 18.4971C24.1472 20.1375 23.5299 21.4785 22.5042 22.5042C21.4785 23.5299 20.1375 24.1472 18.4971 24.5118C16.8686 24.8737 14.8828 25 12.5 25C10.1172 25 8.13141 24.8737 6.50286 24.5118C4.86249 24.1472 3.52145 23.5299 2.49579 22.5042C1.47012 21.4785 0.852805 20.1375 0.488245 18.4971C0.126314 16.8686 0 14.8828 0 12.5C0 10.1172 0.126314 8.13141 0.488245 6.50286C0.852805 4.86249 1.47012 3.52145 2.49579 2.49579C3.52145 1.47012 4.86249 0.852805 6.50286 0.488245ZM13.145 5.85032C13.9233 5.03419 15.2193 4.99136 16.0512 5.74955L19.1251 8.55084C19.9706 9.32136 20.0193 10.6283 19.2282 11.4578L12.8966 18.0973C12.5051 18.5079 11.9628 18.7372 11.3998 18.7393L8.51683 18.75C7.44572 18.754 6.52007 17.9388 6.4456 16.8419L6.25465 14.03C6.21585 13.4585 6.42104 12.9013 6.81347 12.4898L13.145 5.85032ZM14.6493 7.29168L13.7105 8.27612L16.756 11.0315L17.6851 10.0572L14.6505 7.29168L14.6493 7.29168ZM15.3178 12.5397L12.2723 9.78432L8.33485 13.9132L8.52182 16.6666L11.392 16.656L15.3178 12.5397Z" fill="white"/>
</svg>
