<svg width="16" height="17" viewBox="0 0 16 17" fill="none" xmlns="http://www.w3.org/2000/svg">
<path d="M8 15.333C9.63178 15.333 10.8976 15.2448 11.8848 15.0254C12.8642 14.8077 13.528 14.4701 13.999 13.999C14.4701 13.528 14.8077 12.8642 15.0254 11.8848C15.2448 10.8976 15.333 9.63178 15.333 8C15.333 6.36822 15.2448 5.10236 15.0254 4.11523C14.8077 3.13576 14.4701 2.47201 13.999 2.00098C13.528 1.52995 12.8642 1.19231 11.8848 0.974609C10.8976 0.75523 9.63178 0.666992 8 0.666992C6.36822 0.666992 5.10236 0.75523 4.11523 0.974609C3.13576 1.19231 2.47201 1.52995 2.00098 2.00098C1.52995 2.47201 1.19231 3.13576 0.974609 4.11523C0.75523 5.10236 0.666992 6.36822 0.666992 8C0.666992 9.63178 0.75523 10.8976 0.974609 11.8848C1.19231 12.8642 1.52995 13.528 2.00098 13.999C2.47201 14.4701 3.13576 14.8077 4.11523 15.0254C5.10236 15.2448 6.36822 15.333 8 15.333Z" stroke="#18DAA3" stroke-width="1.33333" stroke-linecap="round" stroke-linejoin="round"/>
<path d="M7.43847 5.45455L8.61303 4.22286C8.88292 3.93985 9.33639 3.9243 9.6259 4.18814L11.772 6.14395C12.0615 6.40778 12.0774 6.85108 11.8075 7.13409L10.5455 8.45757M7.43847 5.45455L4.19245 8.85844C4.05755 8.9999 3.98847 9.18958 4.00158 9.38255L4.13489 11.3458C4.15996 11.7149 4.47427 12.0014 4.85269 12L6.86551 11.9925C7.06335 11.9918 7.25207 11.9111 7.38698 11.7697L10.5455 8.45757M7.43847 5.45455L10.5455 8.45757" stroke="#18DAA3" stroke-width="1.33333" stroke-linejoin="round"/>
</svg>
