<svg width="25" height="25" viewBox="0 0 25 25" fill="none" xmlns="http://www.w3.org/2000/svg">
<path d="M0.765803 20.2399C-0.304862 15.3472 -0.0153738 11.0001 0.230548 9.36718C0.40617 8.20101 6.61172 3.43271 10.1452 0.801859C11.5755 -0.263034 13.5204 -0.267849 14.9552 0.790881C18.5184 3.42013 24.7848 8.20185 24.8619 9.36718C24.8644 9.40393 24.8669 9.44207 24.8695 9.48157C24.9836 11.1931 25.2677 15.4575 24.3262 20.2399C23.791 22.9581 22.2048 24.1852 18.9715 24.589C18.7409 24.6178 18.5109 24.6451 18.2814 24.6708C17.9749 24.7053 17.7083 24.4637 17.7083 24.1545V16.7855C17.7083 15.0558 16.3092 13.6536 14.5833 13.6536L10.4167 13.6536C8.69077 13.6536 7.29166 15.0558 7.29167 16.7855L7.29166 24.1457C7.29166 24.4555 7.02403 24.6973 6.717 24.6617C6.51838 24.6386 6.31951 24.6144 6.12037 24.589C2.88818 24.1767 1.35636 22.9386 0.765803 20.2399Z" fill="#18DAA3"/>
<path d="M9.375 24.4105C9.375 24.686 9.58861 24.9144 9.8631 24.9291C11.6172 25.023 13.3666 25.0237 15.1361 24.9309C15.4109 24.9166 15.625 24.6881 15.625 24.4123L15.625 16.7855C15.625 16.2089 15.1586 15.7415 14.5833 15.7415L10.4167 15.7415C9.84137 15.7415 9.375 16.2089 9.375 16.7855L9.375 24.4105Z" fill="#18DAA3"/>
</svg>
