<svg width="25" height="25" viewBox="0 0 25 25" fill="none" xmlns="http://www.w3.org/2000/svg">
<path d="M14.3122 10.4728C15.8079 11.3738 16.5558 11.8243 16.5558 12.5C16.5558 13.1757 15.8079 13.6262 14.3122 14.5272L12.6295 15.5409C11.1338 16.4419 10.3859 16.8924 9.82502 16.5545C9.26412 16.2166 9.26412 15.3156 9.26412 13.5136V11.4864C9.26412 9.68438 9.26412 8.78339 9.82502 8.44551C10.3859 8.10764 11.1338 8.55814 12.6295 9.45913L14.3122 10.4728Z" fill="#18DAA3"/>
<path fill-rule="evenodd" clip-rule="evenodd" d="M12.5 25C2.20625 25 0 22.7937 0 12.5C0 2.20625 2.20625 0 12.5 0C22.7937 0 25 2.20625 25 12.5C25 22.7937 22.7937 25 12.5 25ZM15.4916 16.249C16.1472 15.8544 16.8266 15.4454 17.3238 15.0336C17.8746 14.5774 18.6391 13.7647 18.6391 12.5C18.6391 11.2353 17.8746 10.4226 17.3238 9.9664C16.8266 9.55461 16.1472 9.14565 15.4916 8.75106L13.5983 7.61059C12.9448 7.21658 12.2643 6.80632 11.6706 6.5616C11.0251 6.29558 9.88992 5.9743 8.75003 6.66095C7.64331 7.32761 7.36765 8.44891 7.27167 9.12341C7.18029 9.76563 7.18053 10.5711 7.18076 11.3659V13.634C7.18053 14.4289 7.18029 15.2344 7.27167 15.8766C7.36765 16.5511 7.64331 17.6724 8.75003 18.3391C9.88992 19.0257 11.0251 18.7044 11.6706 18.4384C12.2643 18.1937 12.9448 17.7834 13.5984 17.3894L15.4916 16.249Z" fill="#18DAA3"/>
</svg>
